<svg width="225" height="47" viewBox="0 0 225 47" fill="none" xmlns="http://www.w3.org/2000/svg">
<path d="M66.0084 18.7755C61.1603 18.7755 57.6797 21.9661 57.6797 27.1201C57.6797 32.2741 61.1603 35.4647 66.0084 35.4647C70.1106 35.4647 72.9697 33.0104 73.7156 29.8198H68.3703C67.9974 30.6788 67.1272 31.4151 65.7598 31.4151C64.1438 31.4151 62.7764 30.4334 62.6521 28.3473H73.9642C73.9642 27.8564 74.0885 27.3655 74.0885 26.8747C74.2128 21.8433 70.8565 18.7755 66.0084 18.7755ZM62.7764 25.5248C63.025 23.6841 64.2681 22.7023 66.0084 22.7023C67.6244 22.7023 69.1162 23.6841 69.1162 25.5248H62.7764Z" fill="#6B2AEE"/>
<path d="M89.3788 24.9113H77.9424V28.9609H89.3788V24.9113Z" fill="#6B2AEE"/>
<path d="M7.9558 14.7258L5.96685 14.1123L4.84807 13.8668L4.47514 12.7624L3.9779 10.799L3.48066 12.7624L3.10773 13.8668L1.98895 14.1123L0 14.7258L1.98895 15.2167L3.10773 15.5849L3.48066 16.6893L3.9779 18.6527L4.47514 16.6893L4.84807 15.5849L5.96685 15.2167L7.9558 14.7258Z" fill="#02E7D9"/>
<path d="M24.8617 1.96345L23.8672 1.71802L23.2457 1.5953L23.1214 0.981723L22.8727 0L22.6241 0.981723L22.3755 1.5953L21.8783 1.71802L20.8838 1.96345L21.8783 2.20888L22.3755 2.33159L22.6241 2.94517L22.8727 3.92689L23.1214 2.94517L23.2457 2.33159L23.8672 2.20888L24.8617 1.96345Z" fill="#02E7D9"/>
<path fill-rule="evenodd" clip-rule="evenodd" d="M5.84238 18.53C2.85896 26.0157 4.47498 34.8512 10.5661 40.8642C18.7706 48.9634 32.196 48.9634 40.4004 40.8642C48.6048 32.765 48.6048 19.5118 40.4004 11.4125C34.4335 5.27676 25.4833 3.68146 17.9004 6.62663C19.6407 6.13577 21.5054 5.76762 23.2457 5.76762C27.9695 5.76762 32.5689 7.48564 36.1739 11.0444C39.7788 14.6031 41.5192 19.1436 41.5192 23.8068C41.5192 28.47 39.7788 33.0104 36.1739 36.5692C32.5689 40.1279 27.9695 41.846 23.2457 41.846C18.5219 41.846 13.9225 40.1279 10.3175 36.5692C6.83686 33.1332 5.09653 28.47 5.09653 23.8068C5.09653 22.0888 5.34515 20.248 5.84238 18.53Z" fill="#6B2AEE"/>
<path fill-rule="evenodd" clip-rule="evenodd" d="M7.45898 30.5561C10.0695 36.4465 16.1606 40.6188 23.122 40.6188C32.5695 40.6188 40.2767 33.0104 40.2767 23.6841C40.2767 14.3577 32.5695 6.74933 23.122 6.74933C16.1606 6.74933 10.0695 10.9217 7.45898 16.9347C8.20484 15.5848 9.07501 14.4804 10.0695 13.376C12.8043 10.6762 16.4093 9.08092 20.5115 9.08092C24.6137 9.08092 28.343 10.6762 30.9535 13.376C33.6883 16.0757 35.3043 19.6344 35.3043 23.6841C35.3043 27.7337 33.6883 31.4151 30.9535 33.9921C28.2187 36.6919 24.6137 38.2872 20.5115 38.2872C16.4093 38.2872 12.68 36.6919 10.0695 33.9921C9.07501 33.0104 8.20484 31.7833 7.45898 30.5561Z" fill="#02E7D9"/>
<path fill-rule="evenodd" clip-rule="evenodd" d="M22.873 39.3916C26.2294 38.9008 29.4614 37.3055 31.9476 34.9739C34.9311 32.0287 36.6714 27.9791 36.6714 23.8068C36.6714 19.6345 35.0554 15.5848 31.9476 12.6397C29.4614 10.1854 26.3537 8.59007 22.873 8.22192C22.9974 8.22192 22.9974 8.22192 23.1217 8.22192C31.9476 8.22192 39.0333 15.2167 39.0333 23.9295C39.0333 28.1018 37.4172 32.0287 34.4338 34.9739C31.4504 37.9191 27.4725 39.5144 23.246 39.5144C22.9974 39.3916 22.9974 39.3916 22.873 39.3916Z" fill="url(#paint0_linear)"/>
<path d="M42.1411 8.83551C44.1321 8.83551 45.7461 7.24221 45.7461 5.27676C45.7461 3.31132 44.1321 1.71802 42.1411 1.71802C40.1501 1.71802 38.5361 3.31132 38.5361 5.27676C38.5361 7.24221 40.1501 8.83551 42.1411 8.83551Z" fill="#02E7D9"/>
<path d="M42.1406 2.69977C43.6323 2.69977 44.7511 3.80421 44.7511 5.27679" stroke="white" stroke-width="0.7" stroke-miterlimit="10"/>
<path d="M6.33973 47C9.36051 47 11.8093 44.5826 11.8093 41.6005C11.8093 38.6185 9.36051 36.201 6.33973 36.201C3.31895 36.201 0.870117 38.6185 0.870117 41.6005C0.870117 44.5826 3.31895 47 6.33973 47Z" fill="#02E7D9"/>
<path d="M5.59376 45.282C3.4805 44.9138 2.11309 42.8277 2.48602 40.7415" stroke="white" stroke-miterlimit="10"/>
<path d="M41.022 36.2011L38.6601 35.4648L37.2927 35.0966L36.9198 33.7468L36.174 31.4152L35.5524 33.7468L35.1795 35.0966L33.8121 35.4648L31.4502 36.2011L33.8121 36.8146L35.1795 37.1828L35.5524 38.5327L36.174 40.8642L36.9198 38.5327L37.2927 37.1828L38.6601 36.8146L41.022 36.2011Z" fill="white"/>
<path d="M34.6825 24.175H30.3317V33.1332L30.2074 33.2559C27.5969 35.8329 24.2405 37.1828 20.5112 37.1828C16.9063 37.1828 13.5499 35.8329 11.0637 33.3786V24.0522H6.71289L11.6853 20.0026V14.7259H15.9118V16.6893L20.6355 12.8851L27.5969 18.53L34.1853 23.9295L34.6825 24.175Z" fill="#02E7D9"/>
<path d="M20.0138 25.0339H17.4033V27.611H20.0138V25.0339Z" fill="white"/>
<path d="M23.9914 25.0339H21.3809V27.611H23.9914V25.0339Z" fill="white"/>
<path d="M20.0138 28.8381H17.4033V31.4152H20.0138V28.8381Z" fill="white"/>
<path d="M23.9914 28.8381H21.3809V31.4152H23.9914V28.8381Z" fill="white"/>
<path fill-rule="evenodd" clip-rule="evenodd" d="M25.6077 45.4047C20.3867 45.4047 15.4143 43.4412 11.685 39.7598C11.4364 39.5143 11.3121 39.3916 11.0635 39.1462C14.5441 41.8459 18.7707 43.3185 23.2458 43.3185C28.5911 43.3185 33.4392 41.2324 37.1685 37.5509C37.9143 36.8146 38.5359 36.0783 39.1574 35.2193C38.1629 38.1645 36.5469 40.7415 34.558 43.1958C31.8231 44.6684 28.7154 45.4047 25.6077 45.4047Z" fill="url(#paint1_linear)"/>
<path d="M16.5381 18.2442V14.6855H16.0408V18.2442H16.5381Z" fill="white"/>
<path d="M113.872 18.272L109.024 35H106.576L102.688 21.536L98.656 35L96.232 35.024L91.552 18.272H93.88L97.528 32.456L101.56 18.272H104.008L107.848 32.408L111.52 18.272H113.872ZM116.646 23.534C116.334 23.534 116.07 23.426 115.854 23.21C115.638 22.994 115.53 22.73 115.53 22.418C115.53 22.106 115.638 21.842 115.854 21.626C116.07 21.41 116.334 21.302 116.646 21.302C116.946 21.302 117.198 21.41 117.402 21.626C117.618 21.842 117.726 22.106 117.726 22.418C117.726 22.73 117.618 22.994 117.402 23.21C117.198 23.426 116.946 23.534 116.646 23.534ZM117.438 25.136V35H115.8V25.136H117.438ZM121.868 26.954C122.192 26.39 122.672 25.922 123.308 25.55C123.956 25.166 124.706 24.974 125.558 24.974C126.434 24.974 127.226 25.184 127.934 25.604C128.654 26.024 129.218 26.618 129.626 27.386C130.034 28.142 130.238 29.024 130.238 30.032C130.238 31.028 130.034 31.916 129.626 32.696C129.218 33.476 128.654 34.082 127.934 34.514C127.226 34.946 126.434 35.162 125.558 35.162C124.718 35.162 123.974 34.976 123.326 34.604C122.69 34.22 122.204 33.746 121.868 33.182V39.68H120.23V25.136H121.868V26.954ZM128.564 30.032C128.564 29.288 128.414 28.64 128.114 28.088C127.814 27.536 127.406 27.116 126.89 26.828C126.386 26.54 125.828 26.396 125.216 26.396C124.616 26.396 124.058 26.546 123.542 26.846C123.038 27.134 122.63 27.56 122.318 28.124C122.018 28.676 121.868 29.318 121.868 30.05C121.868 30.794 122.018 31.448 122.318 32.012C122.63 32.564 123.038 32.99 123.542 33.29C124.058 33.578 124.616 33.722 125.216 33.722C125.828 33.722 126.386 33.578 126.89 33.29C127.406 32.99 127.814 32.564 128.114 32.012C128.414 31.448 128.564 30.788 128.564 30.032ZM141.394 29.69C141.394 30.002 141.376 30.332 141.34 30.68H133.456C133.516 31.652 133.846 32.414 134.446 32.966C135.058 33.506 135.796 33.776 136.66 33.776C137.368 33.776 137.956 33.614 138.424 33.29C138.904 32.954 139.24 32.51 139.432 31.958H141.196C140.932 32.906 140.404 33.68 139.612 34.28C138.82 34.868 137.836 35.162 136.66 35.162C135.724 35.162 134.884 34.952 134.14 34.532C133.408 34.112 132.832 33.518 132.412 32.75C131.992 31.97 131.782 31.07 131.782 30.05C131.782 29.03 131.986 28.136 132.394 27.368C132.802 26.6 133.372 26.012 134.104 25.604C134.848 25.184 135.7 24.974 136.66 24.974C137.596 24.974 138.424 25.178 139.144 25.586C139.864 25.994 140.416 26.558 140.8 27.278C141.196 27.986 141.394 28.79 141.394 29.69ZM139.702 29.348C139.702 28.724 139.564 28.19 139.288 27.746C139.012 27.29 138.634 26.948 138.154 26.72C137.686 26.48 137.164 26.36 136.588 26.36C135.76 26.36 135.052 26.624 134.464 27.152C133.888 27.68 133.558 28.412 133.474 29.348H139.702ZM154.121 35.168C153.017 35.168 152.025 34.976 151.145 34.592C150.281 34.192 149.601 33.648 149.105 32.96C148.609 32.256 148.353 31.448 148.337 30.536H150.665C150.745 31.32 151.065 31.984 151.625 32.528C152.201 33.056 153.033 33.32 154.121 33.32C155.161 33.32 155.977 33.064 156.569 32.552C157.177 32.024 157.481 31.352 157.481 30.536C157.481 29.896 157.305 29.376 156.953 28.976C156.601 28.576 156.161 28.272 155.633 28.064C155.105 27.856 154.393 27.632 153.497 27.392C152.393 27.104 151.505 26.816 150.833 26.528C150.177 26.24 149.609 25.792 149.129 25.184C148.665 24.56 148.433 23.728 148.433 22.688C148.433 21.776 148.665 20.968 149.129 20.264C149.593 19.56 150.241 19.016 151.073 18.632C151.921 18.248 152.889 18.056 153.977 18.056C155.545 18.056 156.825 18.448 157.817 19.232C158.825 20.016 159.393 21.056 159.521 22.352H157.121C157.041 21.712 156.705 21.152 156.113 20.672C155.521 20.176 154.737 19.928 153.761 19.928C152.849 19.928 152.105 20.168 151.529 20.648C150.953 21.112 150.665 21.768 150.665 22.616C150.665 23.224 150.833 23.72 151.169 24.104C151.521 24.488 151.945 24.784 152.441 24.992C152.953 25.184 153.665 25.408 154.577 25.664C155.681 25.968 156.569 26.272 157.241 26.576C157.913 26.864 158.489 27.32 158.969 27.944C159.449 28.552 159.689 29.384 159.689 30.44C159.689 31.256 159.473 32.024 159.041 32.744C158.609 33.464 157.969 34.048 157.121 34.496C156.273 34.944 155.273 35.168 154.121 35.168ZM163.287 23.534C162.975 23.534 162.711 23.426 162.495 23.21C162.279 22.994 162.171 22.73 162.171 22.418C162.171 22.106 162.279 21.842 162.495 21.626C162.711 21.41 162.975 21.302 163.287 21.302C163.587 21.302 163.839 21.41 164.043 21.626C164.259 21.842 164.367 22.106 164.367 22.418C164.367 22.73 164.259 22.994 164.043 23.21C163.839 23.426 163.587 23.534 163.287 23.534ZM164.079 25.136V35H162.441V25.136H164.079ZM178.732 24.956C179.5 24.956 180.184 25.118 180.784 25.442C181.384 25.754 181.858 26.228 182.206 26.864C182.554 27.5 182.728 28.274 182.728 29.186V35H181.108V29.42C181.108 28.436 180.862 27.686 180.37 27.17C179.89 26.642 179.236 26.378 178.408 26.378C177.556 26.378 176.878 26.654 176.374 27.206C175.87 27.746 175.618 28.532 175.618 29.564V35H173.998V29.42C173.998 28.436 173.752 27.686 173.26 27.17C172.78 26.642 172.126 26.378 171.298 26.378C170.446 26.378 169.768 26.654 169.264 27.206C168.76 27.746 168.508 28.532 168.508 29.564V35H166.87V25.136H168.508V26.558C168.832 26.042 169.264 25.646 169.804 25.37C170.356 25.094 170.962 24.956 171.622 24.956C172.45 24.956 173.182 25.142 173.818 25.514C174.454 25.886 174.928 26.432 175.24 27.152C175.516 26.456 175.972 25.916 176.608 25.532C177.244 25.148 177.952 24.956 178.732 24.956ZM187.053 26.954C187.377 26.39 187.857 25.922 188.493 25.55C189.141 25.166 189.891 24.974 190.743 24.974C191.619 24.974 192.411 25.184 193.119 25.604C193.839 26.024 194.403 26.618 194.811 27.386C195.219 28.142 195.423 29.024 195.423 30.032C195.423 31.028 195.219 31.916 194.811 32.696C194.403 33.476 193.839 34.082 193.119 34.514C192.411 34.946 191.619 35.162 190.743 35.162C189.903 35.162 189.159 34.976 188.511 34.604C187.875 34.22 187.389 33.746 187.053 33.182V39.68H185.415V25.136H187.053V26.954ZM193.749 30.032C193.749 29.288 193.599 28.64 193.299 28.088C192.999 27.536 192.591 27.116 192.075 26.828C191.571 26.54 191.013 26.396 190.401 26.396C189.801 26.396 189.243 26.546 188.727 26.846C188.223 27.134 187.815 27.56 187.503 28.124C187.203 28.676 187.053 29.318 187.053 30.05C187.053 30.794 187.203 31.448 187.503 32.012C187.815 32.564 188.223 32.99 188.727 33.29C189.243 33.578 189.801 33.722 190.401 33.722C191.013 33.722 191.571 33.578 192.075 33.29C192.591 32.99 192.999 32.564 193.299 32.012C193.599 31.448 193.749 30.788 193.749 30.032ZM199.217 21.68V35H197.579V21.68H199.217ZM211.009 29.69C211.009 30.002 210.991 30.332 210.955 30.68H203.071C203.131 31.652 203.461 32.414 204.061 32.966C204.673 33.506 205.411 33.776 206.275 33.776C206.983 33.776 207.571 33.614 208.039 33.29C208.519 32.954 208.855 32.51 209.047 31.958H210.811C210.547 32.906 210.019 33.68 209.227 34.28C208.435 34.868 207.451 35.162 206.275 35.162C205.339 35.162 204.499 34.952 203.755 34.532C203.023 34.112 202.447 33.518 202.027 32.75C201.607 31.97 201.397 31.07 201.397 30.05C201.397 29.03 201.601 28.136 202.009 27.368C202.417 26.6 202.987 26.012 203.719 25.604C204.463 25.184 205.315 24.974 206.275 24.974C207.211 24.974 208.039 25.178 208.759 25.586C209.479 25.994 210.031 26.558 210.415 27.278C210.811 27.986 211.009 28.79 211.009 29.69ZM209.317 29.348C209.317 28.724 209.179 28.19 208.903 27.746C208.627 27.29 208.249 26.948 207.769 26.72C207.301 26.48 206.779 26.36 206.203 26.36C205.375 26.36 204.667 26.624 204.079 27.152C203.503 27.68 203.173 28.412 203.089 29.348H209.317Z" fill="#6B2AEE"/>
<path d="M113.872 18.272L114.832 18.5504L115.203 17.272H113.872V18.272ZM109.024 35V36H109.775L109.984 35.2784L109.024 35ZM106.576 35L105.615 35.2774L105.824 36H106.576V35ZM102.688 21.536L103.649 21.2586L102.705 17.9919L101.73 21.2491L102.688 21.536ZM98.656 35L98.6659 36L99.4026 35.9927L99.614 35.2869L98.656 35ZM96.232 35.024L95.2689 35.2931L95.4752 36.0315L96.2419 36.024L96.232 35.024ZM91.552 18.272V17.272H90.2343L90.5889 18.5411L91.552 18.272ZM93.88 18.272L94.8485 18.0229L94.6554 17.272H93.88V18.272ZM97.528 32.456L96.5595 32.7051L97.4797 36.283L98.4899 32.7294L97.528 32.456ZM101.56 18.272V17.272H100.805L100.598 17.9986L101.56 18.272ZM104.008 18.272L104.973 18.0099L104.773 17.272H104.008V18.272ZM107.848 32.408L106.883 32.6701L107.87 36.3022L108.816 32.6594L107.848 32.408ZM111.52 18.272V17.272H110.747L110.552 18.0206L111.52 18.272ZM112.912 17.9936L108.064 34.7216L109.984 35.2784L114.832 18.5504L112.912 17.9936ZM109.024 34H106.576V36H109.024V34ZM107.537 34.7226L103.649 21.2586L101.727 21.8134L105.615 35.2774L107.537 34.7226ZM101.73 21.2491L97.698 34.7131L99.614 35.2869L103.646 21.8229L101.73 21.2491ZM98.6461 34L96.2221 34.024L96.2419 36.024L98.6659 36L98.6461 34ZM97.1951 34.7549L92.5151 18.0029L90.5889 18.5411L95.2689 35.2931L97.1951 34.7549ZM91.552 19.272H93.88V17.272H91.552V19.272ZM92.9115 18.5211L96.5595 32.7051L98.4965 32.2069L94.8485 18.0229L92.9115 18.5211ZM98.4899 32.7294L102.522 18.5454L100.598 17.9986L96.5661 32.1826L98.4899 32.7294ZM101.56 19.272H104.008V17.272H101.56V19.272ZM103.043 18.5341L106.883 32.6701L108.813 32.1459L104.973 18.0099L103.043 18.5341ZM108.816 32.6594L112.488 18.5234L110.552 18.0206L106.88 32.1566L108.816 32.6594ZM111.52 19.272H113.872V17.272H111.52V19.272ZM115.854 23.21L116.561 22.5029L116.561 22.5029L115.854 23.21ZM115.854 21.626L116.561 22.3331L116.561 22.3331L115.854 21.626ZM117.402 21.626L116.675 22.3126L116.685 22.323L116.695 22.3331L117.402 21.626ZM117.402 23.21L116.695 22.5029L116.685 22.513L116.675 22.5234L117.402 23.21ZM117.438 25.136H118.438V24.136H117.438V25.136ZM117.438 35V36H118.438V35H117.438ZM115.8 35H114.8V36H115.8V35ZM115.8 25.136V24.136H114.8V25.136H115.8ZM116.646 22.534C116.608 22.534 116.594 22.5279 116.593 22.5275C116.592 22.5272 116.582 22.5237 116.561 22.5029L115.147 23.9171C115.555 24.3251 116.075 24.534 116.646 24.534V22.534ZM116.561 22.5029C116.54 22.4821 116.537 22.4719 116.537 22.4714C116.536 22.4704 116.53 22.4564 116.53 22.418H114.53C114.53 22.9889 114.739 23.5091 115.147 23.9171L116.561 22.5029ZM116.53 22.418C116.53 22.3796 116.536 22.3656 116.537 22.3646C116.537 22.3641 116.54 22.3539 116.561 22.3331L115.147 20.9189C114.739 21.3269 114.53 21.8471 114.53 22.418H116.53ZM116.561 22.3331C116.582 22.3123 116.592 22.3088 116.593 22.3085C116.594 22.3081 116.608 22.302 116.646 22.302V20.302C116.075 20.302 115.555 20.5109 115.147 20.9189L116.561 22.3331ZM116.646 22.302C116.661 22.302 116.668 22.3033 116.67 22.3036C116.672 22.3039 116.67 22.3037 116.666 22.3021C116.663 22.3006 116.661 22.2992 116.661 22.2994C116.661 22.2997 116.666 22.3033 116.675 22.3126L118.129 20.9394C117.734 20.5212 117.218 20.302 116.646 20.302V22.302ZM116.695 22.3331C116.716 22.3539 116.719 22.3641 116.72 22.3646C116.72 22.3656 116.726 22.3796 116.726 22.418H118.726C118.726 21.8471 118.517 21.3269 118.109 20.9189L116.695 22.3331ZM116.726 22.418C116.726 22.4564 116.72 22.4704 116.72 22.4714C116.719 22.4719 116.716 22.4821 116.695 22.5029L118.109 23.9171C118.517 23.5091 118.726 22.9889 118.726 22.418H116.726ZM116.675 22.5234C116.666 22.5327 116.661 22.5363 116.661 22.5366C116.661 22.5368 116.663 22.5354 116.666 22.5339C116.67 22.5323 116.672 22.5321 116.67 22.5324C116.668 22.5327 116.661 22.534 116.646 22.534V24.534C117.218 24.534 117.734 24.3148 118.129 23.8966L116.675 22.5234ZM116.438 25.136V35H118.438V25.136H116.438ZM117.438 34H115.8V36H117.438V34ZM116.8 35V25.136H114.8V35H116.8ZM115.8 26.136H117.438V24.136H115.8V26.136ZM121.868 26.954H120.868V30.7023L122.735 27.4521L121.868 26.954ZM123.308 25.55L123.813 26.4132L123.818 26.4103L123.308 25.55ZM127.934 25.604L127.424 26.4641L127.43 26.4678L127.934 25.604ZM129.626 27.386L128.743 27.8552L128.746 27.8609L129.626 27.386ZM129.626 32.696L130.512 33.1595L130.512 33.1595L129.626 32.696ZM127.934 34.514L127.419 33.6565L127.413 33.6604L127.934 34.514ZM123.326 34.604L122.809 35.4601L122.818 35.4658L122.828 35.4713L123.326 34.604ZM121.868 33.182L122.727 32.6702L120.868 29.5496V33.182H121.868ZM121.868 39.68V40.68H122.868V39.68H121.868ZM120.23 39.68H119.23V40.68H120.23V39.68ZM120.23 25.136V24.136H119.23V25.136H120.23ZM121.868 25.136H122.868V24.136H121.868V25.136ZM128.114 28.088L128.992 27.6105L128.992 27.6105L128.114 28.088ZM126.89 26.828L126.394 27.6963L126.402 27.7012L126.89 26.828ZM123.542 26.846L124.038 27.7143L124.044 27.7105L123.542 26.846ZM122.318 28.124L121.443 27.6399L121.439 27.6465L122.318 28.124ZM122.318 32.012L121.435 32.4816L121.441 32.4929L121.447 32.5041L122.318 32.012ZM123.542 33.29L123.03 34.1493L123.042 34.1564L123.054 34.1632L123.542 33.29ZM126.89 33.29L127.386 34.1583L127.392 34.1545L126.89 33.29ZM128.114 32.012L128.992 32.4895L128.997 32.4816L128.114 32.012ZM122.735 27.4521C122.961 27.0585 123.307 26.7091 123.813 26.4132L122.803 24.6868C122.037 25.1349 121.423 25.7215 121.001 26.4559L122.735 27.4521ZM123.818 26.4103C124.292 26.1293 124.861 25.974 125.558 25.974V23.974C124.55 23.974 123.62 24.2027 122.798 24.6897L123.818 26.4103ZM125.558 25.974C126.266 25.974 126.88 26.1416 127.424 26.4641L128.444 24.7439C127.572 24.2264 126.601 23.974 125.558 23.974V25.974ZM127.43 26.4678C127.982 26.7899 128.418 27.2439 128.743 27.8552L130.509 26.9168C130.018 25.9921 129.325 25.2581 128.438 24.7402L127.43 26.4678ZM128.746 27.8609C129.062 28.4476 129.238 29.161 129.238 30.032H131.238C131.238 28.887 131.005 27.8364 130.506 26.9111L128.746 27.8609ZM129.238 30.032C129.238 30.888 129.063 31.6134 128.74 32.2325L130.512 33.1595C131.004 32.2186 131.238 31.168 131.238 30.032H129.238ZM128.74 32.2325C128.413 32.8577 127.974 33.3238 127.419 33.6565L128.448 35.3715C129.334 34.8402 130.023 34.0943 130.512 33.1595L128.74 32.2325ZM127.413 33.6604C126.871 33.9912 126.261 34.162 125.558 34.162V36.162C126.607 36.162 127.581 35.9008 128.455 35.3676L127.413 33.6604ZM125.558 34.162C124.87 34.162 124.302 34.0114 123.824 33.7367L122.828 35.4713C123.646 35.9406 124.565 36.162 125.558 36.162V34.162ZM123.843 33.7479C123.328 33.4375 122.968 33.0754 122.727 32.6702L121.009 33.6938C121.439 34.4166 122.051 35.0025 122.809 35.4601L123.843 33.7479ZM120.868 33.182V39.68H122.868V33.182H120.868ZM121.868 38.68H120.23V40.68H121.868V38.68ZM121.23 39.68V25.136H119.23V39.68H121.23ZM120.23 26.136H121.868V24.136H120.23V26.136ZM120.868 25.136V26.954H122.868V25.136H120.868ZM129.564 30.032C129.564 29.1519 129.386 28.3339 128.992 27.6105L127.235 28.5655C127.442 28.9461 127.564 29.4241 127.564 30.032H129.564ZM128.992 27.6105C128.608 26.9032 128.069 26.3409 127.377 25.9548L126.402 27.7012C126.743 27.8911 127.02 28.1688 127.235 28.5655L128.992 27.6105ZM127.386 25.9598C126.722 25.5807 125.992 25.396 125.216 25.396V27.396C125.664 27.396 126.049 27.4993 126.394 27.6962L127.386 25.9598ZM125.216 25.396C124.44 25.396 123.709 25.5923 123.039 25.9815L124.044 27.7105C124.407 27.4997 124.791 27.396 125.216 27.396V25.396ZM123.046 25.9778C122.365 26.3665 121.833 26.9338 121.443 27.6399L123.193 28.6081C123.426 28.1862 123.71 27.9015 124.038 27.7142L123.046 25.9778ZM121.439 27.6465C121.047 28.3676 120.868 29.1789 120.868 30.05H122.868C122.868 29.4571 122.988 28.9844 123.196 28.6015L121.439 27.6465ZM120.868 30.05C120.868 30.9307 121.046 31.7509 121.435 32.4816L123.201 31.5424C122.989 31.1451 122.868 30.6573 122.868 30.05H120.868ZM121.447 32.5041C121.838 33.195 122.365 33.7531 123.03 34.1493L124.053 32.4307C123.711 32.2269 123.422 31.933 123.188 31.5199L121.447 32.5041ZM123.054 34.1632C123.722 34.5357 124.448 34.722 125.216 34.722V32.722C124.784 32.722 124.394 32.6203 124.029 32.4168L123.054 34.1632ZM125.216 34.722C125.992 34.722 126.722 34.5373 127.386 34.1582L126.394 32.4218C126.049 32.6187 125.664 32.722 125.216 32.722V34.722ZM127.392 34.1545C128.075 33.7575 128.61 33.1937 128.992 32.4895L127.235 31.5345C127.018 31.9343 126.736 32.2225 126.387 32.4255L127.392 34.1545ZM128.997 32.4816C129.386 31.7487 129.564 30.9218 129.564 30.032H127.564C127.564 30.6542 127.441 31.1473 127.231 31.5424L128.997 32.4816ZM141.34 30.68V31.68H142.242L142.335 30.7829L141.34 30.68ZM133.456 30.68V29.68H132.392L132.458 30.7416L133.456 30.68ZM134.446 32.966L133.769 33.7019L133.776 33.709L133.784 33.7158L134.446 32.966ZM138.424 33.29L138.993 34.1122L138.997 34.1092L138.424 33.29ZM139.432 31.958V30.958H138.721L138.487 31.6295L139.432 31.958ZM141.196 31.958L142.159 32.2263L142.512 30.958H141.196V31.958ZM139.612 34.28L140.208 35.0829L140.216 35.0771L139.612 34.28ZM134.14 34.532L133.642 35.3994L133.648 35.4028L134.14 34.532ZM132.412 32.75L131.531 33.2241L131.534 33.2298L132.412 32.75ZM132.394 27.368L133.277 27.8372L133.277 27.8372L132.394 27.368ZM134.104 25.604L134.591 26.4775L134.595 26.4748L134.104 25.604ZM139.144 25.586L138.651 26.456L138.651 26.456L139.144 25.586ZM140.8 27.278L139.917 27.7486L139.922 27.7574L139.927 27.7662L140.8 27.278ZM139.702 29.348V30.348H140.702V29.348H139.702ZM139.288 27.746L138.432 28.2638L138.439 28.2739L139.288 27.746ZM138.154 26.72L137.697 27.6098L137.711 27.6168L137.725 27.6233L138.154 26.72ZM134.464 27.152L133.796 26.4079L133.788 26.4148L134.464 27.152ZM133.474 29.348L132.478 29.2586L132.38 30.348H133.474V29.348ZM140.394 29.69C140.394 29.9638 140.378 30.2593 140.345 30.5771L142.335 30.7829C142.374 30.4047 142.394 30.0402 142.394 29.69H140.394ZM141.34 29.68H133.456V31.68H141.34V29.68ZM132.458 30.7416C132.53 31.918 132.943 32.9419 133.769 33.7019L135.123 32.2301C134.749 31.8861 134.501 31.386 134.454 30.6184L132.458 30.7416ZM133.784 33.7158C134.59 34.427 135.568 34.776 136.66 34.776V32.776C136.024 32.776 135.525 32.585 135.107 32.2162L133.784 33.7158ZM136.66 34.776C137.521 34.776 138.321 34.5775 138.993 34.1122L137.855 32.4678C137.591 32.6505 137.214 32.776 136.66 32.776V34.776ZM138.997 34.1092C139.649 33.653 140.115 33.0376 140.376 32.2865L138.487 31.6295C138.365 31.9824 138.159 32.255 137.85 32.4708L138.997 34.1092ZM139.432 32.958H141.196V30.958H139.432V32.958ZM140.232 31.6897C140.028 32.4247 139.627 33.0137 139.008 33.4829L140.216 35.0771C141.18 34.3463 141.836 33.3873 142.159 32.2263L140.232 31.6897ZM139.016 33.4771C138.427 33.9139 137.664 34.162 136.66 34.162V36.162C138.008 36.162 139.212 35.8221 140.208 35.0829L139.016 33.4771ZM136.66 34.162C135.879 34.162 135.211 33.9886 134.631 33.6612L133.648 35.4028C134.556 35.9154 135.568 36.162 136.66 36.162V34.162ZM134.637 33.6646C134.071 33.3399 133.624 32.8828 133.289 32.2702L131.534 33.2298C132.039 34.1532 132.744 34.8841 133.642 35.3994L134.637 33.6646ZM133.292 32.2759C132.962 31.6623 132.782 30.9298 132.782 30.05H130.782C130.782 31.2102 131.022 32.2777 131.531 33.2241L133.292 32.2759ZM132.782 30.05C132.782 29.1653 132.958 28.4376 133.277 27.8372L131.511 26.8988C131.014 27.8344 130.782 28.8947 130.782 30.05H132.782ZM133.277 27.8372C133.598 27.2325 134.034 26.788 134.591 26.4775L133.617 24.7305C132.71 25.236 132.005 25.9675 131.511 26.8988L133.277 27.8372ZM134.595 26.4748C135.172 26.1496 135.85 25.974 136.66 25.974V23.974C135.549 23.974 134.524 24.2184 133.612 24.7332L134.595 26.4748ZM136.66 25.974C137.446 25.974 138.1 26.1439 138.651 26.456L139.637 24.716C138.748 24.2121 137.746 23.974 136.66 23.974V25.974ZM138.651 26.456C139.208 26.7719 139.624 27.1985 139.917 27.7486L141.682 26.8074C141.208 25.9175 140.519 25.2161 139.637 24.716L138.651 26.456ZM139.927 27.7662C140.231 28.3091 140.394 28.9418 140.394 29.69H142.394C142.394 28.6382 142.161 27.6629 141.673 26.7898L139.927 27.7662ZM140.702 29.348C140.702 28.5739 140.529 27.8489 140.137 27.2181L138.439 28.2739C138.598 28.5311 138.702 28.8741 138.702 29.348H140.702ZM140.143 27.2282C139.766 26.6053 139.24 26.129 138.583 25.8167L137.725 27.6233C138.027 27.767 138.257 27.9747 138.432 28.2638L140.143 27.2282ZM138.61 25.8302C137.988 25.5111 137.307 25.36 136.588 25.36V27.36C137.021 27.36 137.384 27.4489 137.697 27.6098L138.61 25.8302ZM136.588 25.36C135.526 25.36 134.577 25.7067 133.796 26.408L135.132 27.896C135.527 27.5413 135.994 27.36 136.588 27.36V25.36ZM133.788 26.4148C132.992 27.1441 132.579 28.1274 132.478 29.2586L134.47 29.4374C134.536 28.6966 134.783 28.2159 135.14 27.8892L133.788 26.4148ZM133.474 30.348H139.702V28.348H133.474V30.348ZM151.145 34.592L150.725 35.4995L150.735 35.5041L150.745 35.5085L151.145 34.592ZM149.105 32.96L148.287 33.536L148.294 33.5448L149.105 32.96ZM148.337 30.536V29.536H147.319L147.337 30.5535L148.337 30.536ZM150.665 30.536L151.66 30.4345L151.568 29.536H150.665V30.536ZM151.625 32.528L150.928 33.2453L150.938 33.2554L150.949 33.2652L151.625 32.528ZM156.569 32.552L157.223 33.3084L157.224 33.307L156.569 32.552ZM156.953 28.976L156.202 29.6366L156.202 29.6366L156.953 28.976ZM155.633 28.064L155.266 28.9944L155.266 28.9944L155.633 28.064ZM153.497 27.392L153.755 26.426L153.749 26.4244L153.497 27.392ZM150.833 26.528L150.431 27.4437L150.439 27.4471L150.833 26.528ZM149.129 25.184L148.326 25.7807L148.335 25.7923L148.344 25.8036L149.129 25.184ZM149.129 20.264L149.964 20.8143L149.964 20.8143L149.129 20.264ZM151.073 18.632L150.66 17.721L150.654 17.724L151.073 18.632ZM157.817 19.232L157.197 20.0166L157.203 20.0214L157.817 19.232ZM159.521 22.352V23.352H160.624L160.516 22.2537L159.521 22.352ZM157.121 22.352L156.128 22.476L156.238 23.352H157.121V22.352ZM156.113 20.672L155.471 21.4385L155.477 21.4437L155.483 21.4488L156.113 20.672ZM151.529 20.648L152.156 21.4268L152.163 21.4215L152.169 21.4162L151.529 20.648ZM151.169 24.104L150.416 24.7625L150.424 24.7712L150.432 24.7797L151.169 24.104ZM152.441 24.992L152.054 25.9142L152.072 25.9216L152.09 25.9283L152.441 24.992ZM154.577 25.664L154.306 26.6268L154.311 26.6281L154.577 25.664ZM157.241 26.576L156.829 27.4871L156.838 27.4912L156.847 27.4951L157.241 26.576ZM158.969 27.944L158.176 28.5538L158.184 28.5636L158.969 27.944ZM159.041 32.744L159.898 33.2585L159.898 33.2585L159.041 32.744ZM157.121 34.496L156.654 33.6118L157.121 34.496ZM154.121 34.168C153.134 34.168 152.281 33.9968 151.545 33.6755L150.745 35.5085C151.768 35.9552 152.9 36.168 154.121 36.168V34.168ZM151.565 33.6845C150.837 33.3477 150.3 32.9074 149.916 32.3752L148.294 33.5448C148.902 34.3886 149.724 35.0363 150.725 35.4995L151.565 33.6845ZM149.922 32.384C149.549 31.8537 149.349 31.2428 149.337 30.5185L147.337 30.5535C147.356 31.6532 147.669 32.6583 148.287 33.536L149.922 32.384ZM148.337 31.536H150.665V29.536H148.337V31.536ZM149.67 30.6375C149.774 31.653 150.198 32.5358 150.928 33.2453L152.322 31.8107C151.932 31.4322 151.716 30.987 151.66 30.4345L149.67 30.6375ZM150.949 33.2652C151.771 34.0187 152.881 34.32 154.121 34.32V32.32C153.184 32.32 152.63 32.0933 152.3 31.7908L150.949 33.2652ZM154.121 34.32C155.321 34.32 156.397 34.0229 157.223 33.3084L155.915 31.7956C155.557 32.1051 155 32.32 154.121 32.32V34.32ZM157.224 33.307C158.054 32.5862 158.481 31.6372 158.481 30.536H156.481C156.481 31.0668 156.299 31.4618 155.913 31.797L157.224 33.307ZM158.481 30.536C158.481 29.7042 158.247 28.9331 157.703 28.3154L156.202 29.6366C156.362 29.8189 156.481 30.0878 156.481 30.536H158.481ZM157.703 28.3154C157.24 27.7885 156.665 27.3959 155.999 27.1336L155.266 28.9944C155.656 29.1481 155.962 29.3635 156.202 29.6366L157.703 28.3154ZM155.999 27.1336C155.421 26.9058 154.668 26.6705 153.755 26.4261L153.238 28.3579C154.117 28.5935 154.788 28.8062 155.266 28.9944L155.999 27.1336ZM153.749 26.4244C152.67 26.1428 151.835 25.8695 151.227 25.6089L150.439 27.4471C151.175 27.7625 152.116 28.0652 153.244 28.3596L153.749 26.4244ZM151.235 25.6124C150.741 25.3955 150.301 25.0545 149.914 24.5644L148.344 25.8036C148.917 26.5295 149.613 27.0845 150.431 27.4436L151.235 25.6124ZM149.931 24.5873C149.633 24.1857 149.433 23.5849 149.433 22.688H147.433C147.433 23.8711 147.697 24.9343 148.326 25.7807L149.931 24.5873ZM149.433 22.688C149.433 21.9549 149.616 21.3416 149.964 20.8143L148.294 19.7137C147.713 20.5944 147.433 21.5971 147.433 22.688H149.433ZM149.964 20.8143C150.316 20.2794 150.814 19.8529 151.492 19.54L150.654 17.724C149.668 18.1791 148.869 18.8406 148.294 19.7137L149.964 20.8143ZM151.485 19.543C152.184 19.2267 153.007 19.056 153.977 19.056V17.056C152.77 17.056 151.658 17.2693 150.66 17.721L151.485 19.543ZM153.977 19.056C155.375 19.056 156.42 19.4029 157.197 20.0166L158.437 18.4474C157.229 17.4931 155.714 17.056 153.977 17.056V19.056ZM157.203 20.0214C157.99 20.6333 158.424 21.421 158.526 22.4503L160.516 22.2537C160.362 20.6909 159.66 19.3987 158.431 18.4426L157.203 20.0214ZM159.521 21.352H157.121V23.352H159.521V21.352ZM158.113 22.228C157.995 21.286 157.496 20.5063 156.743 19.8952L155.483 21.4488C155.913 21.7977 156.086 22.138 156.128 22.476L158.113 22.228ZM156.755 19.9055C155.94 19.2223 154.908 18.928 153.761 18.928V20.928C154.565 20.928 155.102 21.1297 155.471 21.4385L156.755 19.9055ZM153.761 18.928C152.667 18.928 151.681 19.2195 150.889 19.8798L152.169 21.4162C152.529 21.1165 153.03 20.928 153.761 20.928V18.928ZM150.901 19.8692C150.053 20.5523 149.665 21.5153 149.665 22.616H151.665C151.665 22.0207 151.852 21.6717 152.156 21.4268L150.901 19.8692ZM149.665 22.616C149.665 23.4174 149.891 24.1626 150.416 24.7625L151.921 23.4455C151.774 23.2774 151.665 23.0306 151.665 22.616H149.665ZM150.432 24.7797C150.884 25.2737 151.429 25.6522 152.054 25.9142L152.827 24.0698C152.46 23.9158 152.157 23.7023 151.906 23.4283L150.432 24.7797ZM152.09 25.9283C152.641 26.1349 153.384 26.3678 154.306 26.6268L154.847 24.7012C153.946 24.4482 153.265 24.2331 152.792 24.0557L152.09 25.9283ZM154.311 26.6281C155.389 26.925 156.222 27.2129 156.829 27.4871L157.653 25.6649C156.915 25.3311 155.972 25.011 154.842 24.6999L154.311 26.6281ZM156.847 27.4951C157.35 27.7106 157.792 28.0545 158.176 28.5537L159.761 27.3343C159.185 26.5855 158.476 26.0174 157.635 25.6569L156.847 27.4951ZM158.184 28.5636C158.482 28.9407 158.689 29.5279 158.689 30.44H160.689C160.689 29.2401 160.416 28.1633 159.754 27.3244L158.184 28.5636ZM158.689 30.44C158.689 31.0693 158.525 31.6602 158.183 32.2295L159.898 33.2585C160.421 32.3878 160.689 31.4427 160.689 30.44H158.689ZM158.183 32.2295C157.858 32.7717 157.364 33.2367 156.654 33.6118L157.588 35.3802C158.574 34.8593 159.36 34.1563 159.898 33.2585L158.183 32.2295ZM156.654 33.6118C155.976 33.9699 155.142 34.168 154.121 34.168V36.168C155.403 36.168 156.57 35.9181 157.588 35.3802L156.654 33.6118ZM162.495 23.21L163.202 22.5029L163.202 22.5029L162.495 23.21ZM162.495 21.626L163.202 22.3331L163.202 22.3331L162.495 21.626ZM164.043 21.626L163.316 22.3126L163.325 22.323L163.336 22.3331L164.043 21.626ZM164.043 23.21L163.336 22.5029L163.325 22.513L163.316 22.5234L164.043 23.21ZM164.079 25.136H165.079V24.136H164.079V25.136ZM164.079 35V36H165.079V35H164.079ZM162.441 35H161.441V36H162.441V35ZM162.441 25.136V24.136H161.441V25.136H162.441ZM163.287 22.534C163.248 22.534 163.234 22.5279 163.233 22.5275C163.233 22.5272 163.223 22.5237 163.202 22.5029L161.788 23.9171C162.196 24.3251 162.716 24.534 163.287 24.534V22.534ZM163.202 22.5029C163.181 22.4821 163.177 22.4719 163.177 22.4714C163.177 22.4704 163.171 22.4564 163.171 22.418H161.171C161.171 22.9889 161.38 23.5091 161.788 23.9171L163.202 22.5029ZM163.171 22.418C163.171 22.3796 163.177 22.3656 163.177 22.3646C163.177 22.3641 163.181 22.3539 163.202 22.3331L161.788 20.9189C161.38 21.3269 161.171 21.8471 161.171 22.418H163.171ZM163.202 22.3331C163.223 22.3123 163.233 22.3088 163.233 22.3085C163.234 22.3081 163.248 22.302 163.287 22.302V20.302C162.716 20.302 162.196 20.5109 161.788 20.9189L163.202 22.3331ZM163.287 22.302C163.301 22.302 163.309 22.3033 163.311 22.3036C163.312 22.3039 163.31 22.3037 163.307 22.3021C163.303 22.3006 163.301 22.2992 163.301 22.2994C163.302 22.2997 163.307 22.3033 163.316 22.3126L164.77 20.9394C164.375 20.5212 163.859 20.302 163.287 20.302V22.302ZM163.336 22.3331C163.356 22.3539 163.36 22.3641 163.36 22.3646C163.361 22.3656 163.367 22.3796 163.367 22.418H165.367C165.367 21.8471 165.158 21.3269 164.75 20.9189L163.336 22.3331ZM163.367 22.418C163.367 22.4564 163.361 22.4704 163.36 22.4714C163.36 22.4719 163.356 22.4821 163.336 22.5029L164.75 23.9171C165.158 23.5091 165.367 22.9889 165.367 22.418H163.367ZM163.316 22.5234C163.307 22.5327 163.302 22.5363 163.301 22.5366C163.301 22.5368 163.303 22.5354 163.307 22.5339C163.31 22.5323 163.312 22.5321 163.311 22.5324C163.309 22.5327 163.301 22.534 163.287 22.534V24.534C163.859 24.534 164.375 24.3148 164.77 23.8966L163.316 22.5234ZM163.079 25.136V35H165.079V25.136H163.079ZM164.079 34H162.441V36H164.079V34ZM163.441 35V25.136H161.441V35H163.441ZM162.441 26.136H164.079V24.136H162.441V26.136ZM180.784 25.442L180.309 26.3219L180.316 26.3256L180.323 26.3292L180.784 25.442ZM182.206 26.864L181.329 27.344L181.329 27.344L182.206 26.864ZM182.728 35V36H183.728V35H182.728ZM181.108 35H180.108V36H181.108V35ZM180.37 27.17L179.63 27.8427L179.638 27.8515L179.647 27.8601L180.37 27.17ZM176.374 27.206L177.105 27.8884L177.113 27.8803L176.374 27.206ZM175.618 35V36H176.618V35H175.618ZM173.998 35H172.998V36H173.998V35ZM173.26 27.17L172.52 27.8427L172.528 27.8515L172.537 27.8601L173.26 27.17ZM169.264 27.206L169.995 27.8884L170.003 27.8803L169.264 27.206ZM168.508 35V36H169.508V35H168.508ZM166.87 35H165.87V36H166.87V35ZM166.87 25.136V24.136H165.87V25.136H166.87ZM168.508 25.136H169.508V24.136H168.508V25.136ZM168.508 26.558H167.508V30.0311L169.355 27.0898L168.508 26.558ZM169.804 25.37L169.357 24.4755L169.349 24.4796L169.804 25.37ZM173.818 25.514L173.313 26.3772L173.313 26.3772L173.818 25.514ZM175.24 27.152L174.323 27.5496L175.281 29.7615L176.17 27.5206L175.24 27.152ZM176.608 25.532L177.125 26.3881L177.125 26.3881L176.608 25.532ZM178.732 25.956C179.356 25.956 179.873 26.0862 180.309 26.3219L181.26 24.5621C180.496 24.1498 179.645 23.956 178.732 23.956V25.956ZM180.323 26.3292C180.734 26.543 181.069 26.8688 181.329 27.344L183.084 26.384C182.648 25.5872 182.035 24.965 181.246 24.5548L180.323 26.3292ZM181.329 27.344C181.578 27.7996 181.728 28.3993 181.728 29.186H183.728C183.728 28.1487 183.53 27.2004 183.084 26.384L181.329 27.344ZM181.728 29.186V35H183.728V29.186H181.728ZM182.728 34H181.108V36H182.728V34ZM182.108 35V29.42H180.108V35H182.108ZM182.108 29.42C182.108 28.278 181.822 27.2429 181.094 26.4799L179.647 27.8601C179.903 28.1291 180.108 28.594 180.108 29.42H182.108ZM181.11 26.4973C180.41 25.7268 179.468 25.378 178.408 25.378V27.378C179.004 27.378 179.371 27.5572 179.63 27.8427L181.11 26.4973ZM178.408 25.378C177.319 25.378 176.357 25.7422 175.636 26.5317L177.113 27.8803C177.4 27.5658 177.794 27.378 178.408 27.378V25.378ZM175.643 26.5237C174.908 27.3115 174.618 28.3798 174.618 29.564H176.618C176.618 28.6842 176.833 28.1805 177.105 27.8883L175.643 26.5237ZM174.618 29.564V35H176.618V29.564H174.618ZM175.618 34H173.998V36H175.618V34ZM174.998 35V29.42H172.998V35H174.998ZM174.998 29.42C174.998 28.278 174.712 27.2429 173.984 26.4799L172.537 27.8601C172.793 28.1291 172.998 28.594 172.998 29.42H174.998ZM174 26.4973C173.3 25.7268 172.358 25.378 171.298 25.378V27.378C171.894 27.378 172.261 27.5572 172.52 27.8427L174 26.4973ZM171.298 25.378C170.209 25.378 169.247 25.7422 168.526 26.5317L170.003 27.8803C170.29 27.5658 170.684 27.378 171.298 27.378V25.378ZM168.533 26.5237C167.798 27.3115 167.508 28.3798 167.508 29.564H169.508C169.508 28.6842 169.723 28.1805 169.995 27.8883L168.533 26.5237ZM167.508 29.564V35H169.508V29.564H167.508ZM168.508 34H166.87V36H168.508V34ZM167.87 35V25.136H165.87V35H167.87ZM166.87 26.136H168.508V24.136H166.87V26.136ZM167.508 25.136V26.558H169.508V25.136H167.508ZM169.355 27.0898C169.584 26.7257 169.881 26.454 170.259 26.2604L169.349 24.4796C168.648 24.838 168.081 25.3583 167.661 26.0262L169.355 27.0898ZM170.252 26.2644C170.655 26.0626 171.107 25.956 171.622 25.956V23.956C170.818 23.956 170.058 24.1254 169.357 24.4756L170.252 26.2644ZM171.622 25.956C172.295 25.956 172.849 26.1055 173.313 26.3772L174.323 24.6508C173.516 24.1785 172.605 23.956 171.622 23.956V25.956ZM173.313 26.3772C173.754 26.6346 174.09 27.0113 174.323 27.5496L176.158 26.7544C175.767 25.8527 175.155 25.1374 174.323 24.6508L173.313 26.3772ZM176.17 27.5206C176.366 27.0261 176.678 26.6581 177.125 26.3881L176.092 24.6759C175.267 25.1739 174.667 25.8859 174.311 26.7834L176.17 27.5206ZM177.125 26.3881C177.597 26.103 178.125 25.956 178.732 25.956V23.956C177.78 23.956 176.891 24.193 176.092 24.6759L177.125 26.3881ZM187.053 26.954H186.053V30.7023L187.92 27.4521L187.053 26.954ZM188.493 25.55L188.998 26.4132L189.003 26.4103L188.493 25.55ZM193.119 25.604L192.609 26.4641L192.615 26.4678L193.119 25.604ZM194.811 27.386L193.928 27.8552L193.931 27.8609L194.811 27.386ZM194.811 32.696L195.697 33.1595L195.697 33.1595L194.811 32.696ZM193.119 34.514L192.605 33.6565L192.598 33.6604L193.119 34.514ZM188.511 34.604L187.994 35.4601L188.004 35.4658L188.013 35.4713L188.511 34.604ZM187.053 33.182L187.912 32.6702L186.053 29.5496V33.182H187.053ZM187.053 39.68V40.68H188.053V39.68H187.053ZM185.415 39.68H184.415V40.68H185.415V39.68ZM185.415 25.136V24.136H184.415V25.136H185.415ZM187.053 25.136H188.053V24.136H187.053V25.136ZM193.299 28.088L194.178 27.6105L194.178 27.6105L193.299 28.088ZM192.075 26.828L191.579 27.6963L191.588 27.7012L192.075 26.828ZM188.727 26.846L189.223 27.7143L189.23 27.7105L188.727 26.846ZM187.503 28.124L186.628 27.6399L186.625 27.6465L187.503 28.124ZM187.503 32.012L186.62 32.4816L186.626 32.4929L186.633 32.5041L187.503 32.012ZM188.727 33.29L188.216 34.1493L188.228 34.1564L188.24 34.1632L188.727 33.29ZM192.075 33.29L192.571 34.1583L192.578 34.1545L192.075 33.29ZM193.299 32.012L194.178 32.4895L194.182 32.4816L193.299 32.012ZM187.92 27.4521C188.147 27.0585 188.492 26.7091 188.998 26.4132L187.988 24.6868C187.222 25.1349 186.608 25.7215 186.186 26.4559L187.92 27.4521ZM189.003 26.4103C189.477 26.1293 190.047 25.974 190.743 25.974V23.974C189.736 23.974 188.805 24.2027 187.983 24.6897L189.003 26.4103ZM190.743 25.974C191.452 25.974 192.065 26.1416 192.609 26.4641L193.629 24.7439C192.757 24.2264 191.787 23.974 190.743 23.974V25.974ZM192.615 26.4678C193.168 26.7899 193.603 27.2439 193.928 27.8552L195.694 26.9168C195.203 25.9921 194.511 25.2581 193.623 24.7402L192.615 26.4678ZM193.931 27.8609C194.248 28.4476 194.423 29.161 194.423 30.032H196.423C196.423 28.887 196.191 27.8364 195.691 26.9111L193.931 27.8609ZM194.423 30.032C194.423 30.888 194.249 31.6134 193.925 32.2325L195.697 33.1595C196.19 32.2186 196.423 31.168 196.423 30.032H194.423ZM193.925 32.2325C193.598 32.8577 193.159 33.3238 192.605 33.6565L193.634 35.3715C194.519 34.8402 195.208 34.0943 195.697 33.1595L193.925 32.2325ZM192.598 33.6604C192.056 33.9912 191.446 34.162 190.743 34.162V36.162C191.792 36.162 192.766 35.9008 193.64 35.3676L192.598 33.6604ZM190.743 34.162C190.056 34.162 189.488 34.0114 189.009 33.7367L188.013 35.4713C188.831 35.9406 189.751 36.162 190.743 36.162V34.162ZM189.028 33.7479C188.514 33.4375 188.154 33.0754 187.912 32.6702L186.194 33.6938C186.625 34.4166 187.237 35.0025 187.994 35.4601L189.028 33.7479ZM186.053 33.182V39.68H188.053V33.182H186.053ZM187.053 38.68H185.415V40.68H187.053V38.68ZM186.415 39.68V25.136H184.415V39.68H186.415ZM185.415 26.136H187.053V24.136H185.415V26.136ZM186.053 25.136V26.954H188.053V25.136H186.053ZM194.749 30.032C194.749 29.1519 194.571 28.3339 194.178 27.6105L192.421 28.5655C192.628 28.9461 192.749 29.4241 192.749 30.032H194.749ZM194.178 27.6105C193.794 26.9032 193.254 26.3409 192.563 25.9548L191.588 27.7012C191.928 27.8911 192.205 28.1688 192.421 28.5655L194.178 27.6105ZM192.571 25.9598C191.908 25.5807 191.178 25.396 190.401 25.396V27.396C190.849 27.396 191.235 27.4993 191.579 27.6962L192.571 25.9598ZM190.401 25.396C189.626 25.396 188.894 25.5923 188.225 25.9815L189.23 27.7105C189.592 27.4997 189.977 27.396 190.401 27.396V25.396ZM188.231 25.9778C187.551 26.3665 187.019 26.9338 186.628 27.6399L188.378 28.6081C188.612 28.1862 188.896 27.9015 189.223 27.7142L188.231 25.9778ZM186.625 27.6465C186.233 28.3676 186.053 29.1789 186.053 30.05H188.053C188.053 29.4571 188.174 28.9844 188.382 28.6015L186.625 27.6465ZM186.053 30.05C186.053 30.9307 186.232 31.7509 186.62 32.4816L188.386 31.5424C188.175 31.1451 188.053 30.6573 188.053 30.05H186.053ZM186.633 32.5041C187.023 33.195 187.55 33.7531 188.216 34.1493L189.239 32.4307C188.896 32.2269 188.607 31.933 188.374 31.5199L186.633 32.5041ZM188.24 34.1632C188.907 34.5357 189.633 34.722 190.401 34.722V32.722C189.969 32.722 189.579 32.6203 189.215 32.4168L188.24 34.1632ZM190.401 34.722C191.178 34.722 191.908 34.5373 192.571 34.1582L191.579 32.4218C191.235 32.6187 190.849 32.722 190.401 32.722V34.722ZM192.578 34.1545C193.261 33.7575 193.795 33.1937 194.178 32.4895L192.421 31.5345C192.203 31.9343 191.922 32.2225 191.573 32.4255L192.578 34.1545ZM194.182 32.4816C194.572 31.7487 194.749 30.9218 194.749 30.032H192.749C192.749 30.6542 192.627 31.1473 192.416 31.5424L194.182 32.4816ZM199.217 21.68H200.217V20.68H199.217V21.68ZM199.217 35V36H200.217V35H199.217ZM197.579 35H196.579V36H197.579V35ZM197.579 21.68V20.68H196.579V21.68H197.579ZM198.217 21.68V35H200.217V21.68H198.217ZM199.217 34H197.579V36H199.217V34ZM198.579 35V21.68H196.579V35H198.579ZM197.579 22.68H199.217V20.68H197.579V22.68ZM210.955 30.68V31.68H211.857L211.95 30.7829L210.955 30.68ZM203.071 30.68V29.68H202.007L202.073 30.7416L203.071 30.68ZM204.061 32.966L203.384 33.7019L203.392 33.709L203.399 33.7158L204.061 32.966ZM208.039 33.29L208.608 34.1122L208.613 34.1092L208.039 33.29ZM209.047 31.958V30.958H208.336L208.103 31.6295L209.047 31.958ZM210.811 31.958L211.774 32.2263L212.128 30.958H210.811V31.958ZM209.227 34.28L209.823 35.0829L209.831 35.0771L209.227 34.28ZM203.755 34.532L203.257 35.3994L203.263 35.4028L203.755 34.532ZM202.027 32.75L201.147 33.2241L201.15 33.2298L202.027 32.75ZM202.009 27.368L202.892 27.8372L202.892 27.8372L202.009 27.368ZM203.719 25.604L204.206 26.4775L204.211 26.4748L203.719 25.604ZM208.759 25.586L208.266 26.456L208.266 26.456L208.759 25.586ZM210.415 27.278L209.533 27.7486L209.537 27.7574L209.542 27.7662L210.415 27.278ZM209.317 29.348V30.348H210.317V29.348H209.317ZM208.903 27.746L208.047 28.2638L208.054 28.2739L208.903 27.746ZM207.769 26.72L207.313 27.6098L207.326 27.6168L207.34 27.6233L207.769 26.72ZM204.079 27.152L203.411 26.4079L203.403 26.4148L204.079 27.152ZM203.089 29.348L202.093 29.2586L201.995 30.348H203.089V29.348ZM210.009 29.69C210.009 29.9638 209.993 30.2593 209.96 30.5771L211.95 30.7829C211.989 30.4047 212.009 30.0402 212.009 29.69H210.009ZM210.955 29.68H203.071V31.68H210.955V29.68ZM202.073 30.7416C202.146 31.918 202.558 32.9419 203.384 33.7019L204.738 32.2301C204.364 31.8861 204.117 31.386 204.069 30.6184L202.073 30.7416ZM203.399 33.7158C204.205 34.427 205.183 34.776 206.275 34.776V32.776C205.639 32.776 205.141 32.585 204.723 32.2162L203.399 33.7158ZM206.275 34.776C207.136 34.776 207.936 34.5775 208.608 34.1122L207.47 32.4678C207.206 32.6505 206.83 32.776 206.275 32.776V34.776ZM208.613 34.1092C209.264 33.653 209.73 33.0376 209.992 32.2865L208.103 31.6295C207.98 31.9824 207.774 32.255 207.466 32.4708L208.613 34.1092ZM209.047 32.958H210.811V30.958H209.047V32.958ZM209.848 31.6897C209.643 32.4247 209.243 33.0137 208.623 33.4829L209.831 35.0771C210.796 34.3463 211.451 33.3873 211.774 32.2263L209.848 31.6897ZM208.631 33.4771C208.043 33.9139 207.279 34.162 206.275 34.162V36.162C207.623 36.162 208.828 35.8221 209.823 35.0829L208.631 33.4771ZM206.275 34.162C205.494 34.162 204.827 33.9886 204.247 33.6612L203.263 35.4028C204.172 35.9154 205.184 36.162 206.275 36.162V34.162ZM204.253 33.6646C203.687 33.3399 203.239 32.8828 202.904 32.2702L201.15 33.2298C201.655 34.1532 202.359 34.8841 203.257 35.3994L204.253 33.6646ZM202.908 32.2759C202.577 31.6623 202.397 30.9298 202.397 30.05H200.397C200.397 31.2102 200.637 32.2777 201.147 33.2241L202.908 32.2759ZM202.397 30.05C202.397 29.1653 202.573 28.4376 202.892 27.8372L201.126 26.8988C200.629 27.8344 200.397 28.8947 200.397 30.05H202.397ZM202.892 27.8372C203.213 27.2325 203.649 26.788 204.206 26.4775L203.232 24.7305C202.325 25.236 201.621 25.9675 201.126 26.8988L202.892 27.8372ZM204.211 26.4748C204.787 26.1496 205.466 25.974 206.275 25.974V23.974C205.164 23.974 204.139 24.2184 203.227 24.7332L204.211 26.4748ZM206.275 25.974C207.061 25.974 207.715 26.1439 208.266 26.456L209.252 24.716C208.363 24.2121 207.361 23.974 206.275 23.974V25.974ZM208.266 26.456C208.823 26.7719 209.239 27.1985 209.533 27.7486L211.297 26.8074C210.823 25.9175 210.135 25.2161 209.252 24.716L208.266 26.456ZM209.542 27.7662C209.846 28.3091 210.009 28.9418 210.009 29.69H212.009C212.009 28.6382 211.776 27.6629 211.288 26.7898L209.542 27.7662ZM210.317 29.348C210.317 28.5739 210.144 27.8489 209.752 27.2181L208.054 28.2739C208.214 28.5311 208.317 28.8741 208.317 29.348H210.317ZM209.759 27.2282C209.382 26.6053 208.855 26.129 208.198 25.8167L207.34 27.6233C207.643 27.767 207.873 27.9747 208.048 28.2638L209.759 27.2282ZM208.225 25.8302C207.603 25.5111 206.922 25.36 206.203 25.36V27.36C206.636 27.36 206.999 27.4489 207.313 27.6098L208.225 25.8302ZM206.203 25.36C205.141 25.36 204.192 25.7067 203.411 26.408L204.747 27.896C205.142 27.5413 205.609 27.36 206.203 27.36V25.36ZM203.403 26.4148C202.608 27.1441 202.195 28.1274 202.093 29.2586L204.085 29.4374C204.152 28.6966 204.398 28.2159 204.755 27.8892L203.403 26.4148ZM203.089 30.348H209.317V28.348H203.089V30.348Z" fill="#6B2AEE"/>
<defs>
<linearGradient id="paint0_linear" x1="24.8102" y1="11.534" x2="30.4148" y2="29.134" gradientUnits="userSpaceOnUse">
<stop stop-color="white"/>
<stop offset="1" stop-color="white" stop-opacity="0"/>
</linearGradient>
<linearGradient id="paint1_linear" x1="3.14162" y1="36.2783" x2="29.5191" y2="40.1785" gradientUnits="userSpaceOnUse">
<stop stop-color="white"/>
<stop offset="1" stop-color="white" stop-opacity="0"/>
</linearGradient>
</defs>
</svg>
